<svg xmlns="http://www.w3.org/2000/svg" id="calculator" x="0" y="0" version="1.1" viewBox="0 0 29 29" xml:space="preserve"><path d="M20.5 27.5h-12c-1.654 0-3-1.346-3-3v-20c0-1.654 1.346-3 3-3h12c1.654 0 3 1.346 3 3v20c0 1.654-1.346 3-3 3zm-12-24a1 1 0 0 0-1 1v20a1 1 0 0 0 1 1h12a1 1 0 0 0 1-1v-20a1 1 0 0 0-1-1h-12z"></path><circle cx="10.5" cy="18.5" r="1"></circle><circle cx="14.5" cy="18.5" r="1"></circle><path d="M14.167 23.5h-3.333a1 1 0 0 1 0-2h3.333a1 1 0 0 1 0 2z"></path><circle cx="18.5" cy="22.5" r="1"></circle><circle cx="18.5" cy="18.5" r="1"></circle><circle cx="10.5" cy="14.5" r="1"></circle><circle cx="14.5" cy="14.5" r="1"></circle><circle cx="18.5" cy="14.5" r="1"></circle><path d="M17.5 11.5h-6c-1.103 0-2-.897-2-2v-2c0-1.103.897-2 2-2l5.964-.031c1.107 0 2.005.897 2.005 2v2c0 1.12-.883 2.031-1.969 2.031zm-.031-4.031-5.964.031-.005 2h6l-.031-.031v-2z"></path></svg>